<svg width="200" height="120" viewBox="0 0 200 120" xmlns="http://www.w3.org/2000/svg">
  <!-- DNA as Allegory: "Intertwined Destinies - You & Your Health" -->
  <defs>
    <linearGradient id="destiny1" x1="0%" y1="0%" x2="100%" y2="100%">
      <stop offset="0%" style="stop-color:#8b5cf6;stop-opacity:0.9" />
      <stop offset="50%" style="stop-color:#14b8a6;stop-opacity:1" />
      <stop offset="100%" style="stop-color:#22c55e;stop-opacity:0.9" />
    </linearGradient>
    <linearGradient id="destiny2" x1="100%" y1="0%" x2="0%" y2="100%">
      <stop offset="0%" style="stop-color:#22c55e;stop-opacity:0.9" />
      <stop offset="50%" style="stop-color:#14b8a6;stop-opacity:1" />
      <stop offset="100%" style="stop-color:#8b5cf6;stop-opacity:0.9" />
    </linearGradient>
  </defs>
  
  <!-- Intertwined paths (You and your optimal health becoming one) -->
  <path d="M 20 30 Q 40 20, 60 35 Q 80 50, 100 40 Q 120 30, 140 45" 
        stroke="url(#destiny1)" 
        stroke-width="6" 
        fill="none" 
        stroke-linecap="round"/>
  
  <path d="M 20 50 Q 40 60, 60 45 Q 80 30, 100 40 Q 120 50, 140 35" 
        stroke="url(#destiny2)" 
        stroke-width="6" 
        fill="none" 
        stroke-linecap="round"/>
  
  <!-- Convergence points (moments of perfect alignment) -->
  <circle cx="60" cy="40" r="4" fill="#ffffff" opacity="0.95"/>
  <circle cx="60" cy="40" r="2" fill="#14b8a6"/>
  
  <circle cx="100" cy="40" r="6" fill="#ffffff" opacity="0.95"/>
  <circle cx="100" cy="40" r="3" fill="#22c55e"/>
  
  <!-- Energy emanations (the power of alignment) -->
  <circle cx="100" cy="40" r="12" fill="none" stroke="#14b8a6" stroke-width="1" opacity="0.3"/>
  <circle cx="100" cy="40" r="18" fill="none" stroke="#22c55e" stroke-width="1" opacity="0.2"/>
  
  <!-- Harmony indicators -->
  <path d="M 45 35 Q 52 38, 60 40" stroke="#8b5cf6" stroke-width="2" fill="none" opacity="0.7"/>
  <path d="M 75 35 Q 82 38, 100 40" stroke="#8b5cf6" stroke-width="2" fill="none" opacity="0.7"/>
  <path d="M 45 45 Q 52 42, 60 40" stroke="#8b5cf6" stroke-width="2" fill="none" opacity="0.7"/>
  <path d="M 75 45 Q 82 42, 100 40" stroke="#8b5cf6" stroke-width="2" fill="none" opacity="0.7"/>
  
  <!-- The X emerges from perfect union -->
  <path d="M 85 25 Q 92 32, 100 40 Q 108 48, 115 55" 
        stroke="#14b8a6" stroke-width="3" fill="none" stroke-linecap="round" opacity="0.8"/>
  <path d="M 115 25 Q 108 32, 100 40 Q 92 48, 85 55" 
        stroke="#22c55e" stroke-width="3" fill="none" stroke-linecap="round" opacity="0.8"/>
  
  <!-- Typography -->
  <text x="160" y="40" font-family="Arial, sans-serif" font-size="22" font-weight="500" fill="#1f2937">xova</text>
  <text x="160" y="55" font-family="Arial, sans-serif" font-size="7" font-weight="400" fill="#6b7280" letter-spacing="1px">PERFECT HARMONY</text>
</svg>
