<svg width="200" height="120" viewBox="0 0 200 120" xmlns="http://www.w3.org/2000/svg">
  <!-- Tech-Forward/Digital Precision Concept -->
  <defs>
    <linearGradient id="tech1" x1="0%" y1="0%" x2="100%" y2="100%">
      <stop offset="0%" style="stop-color:#14b8a6" />
      <stop offset="50%" style="stop-color:#06b6d4" />
      <stop offset="100%" style="stop-color:#22c55e" />
    </linearGradient>
  </defs>
  
  <!-- Pixelated/Digital X -->
  <rect x="30" y="30" width="8" height="8" fill="#14b8a6"/>
  <rect x="38" y="38" width="8" height="8" fill="#06b6d4"/>
  <rect x="46" y="46" width="8" height="8" fill="#22c55e"/>
  <rect x="54" y="54" width="8" height="8" fill="#14b8a6"/>
  
  <rect x="54" y="30" width="8" height="8" fill="#22c55e"/>
  <rect x="46" y="38" width="8" height="8" fill="#06b6d4"/>
  <rect x="38" y="46" width="8" height="8" fill="#14b8a6"/>
  <rect x="30" y="54" width="8" height="8" fill="#22c55e"/>
  
  <!-- Digital grid overlay -->
  <rect x="22" y="22" width="48" height="48" fill="none" stroke="#14b8a6" stroke-width="1" opacity="0.3"/>
  <line x1="30" y1="22" x2="30" y2="70" stroke="#14b8a6" stroke-width="0.5" opacity="0.2"/>
  <line x1="38" y1="22" x2="38" y2="70" stroke="#14b8a6" stroke-width="0.5" opacity="0.2"/>
  <line x1="46" y1="22" x2="46" y2="70" stroke="#14b8a6" stroke-width="0.5" opacity="0.2"/>
  <line x1="54" y1="22" x2="54" y2="70" stroke="#14b8a6" stroke-width="0.5" opacity="0.2"/>
  <line x1="62" y1="22" x2="62" y2="70" stroke="#14b8a6" stroke-width="0.5" opacity="0.2"/>
  
  <line x1="22" y1="30" x2="70" y2="30" stroke="#14b8a6" stroke-width="0.5" opacity="0.2"/>
  <line x1="22" y1="38" x2="70" y2="38" stroke="#14b8a6" stroke-width="0.5" opacity="0.2"/>
  <line x1="22" y1="46" x2="70" y2="46" stroke="#14b8a6" stroke-width="0.5" opacity="0.2"/>
  <line x1="22" y1="54" x2="70" y2="54" stroke="#14b8a6" stroke-width="0.5" opacity="0.2"/>
  <line x1="22" y1="62" x2="70" y2="62" stroke="#14b8a6" stroke-width="0.5" opacity="0.2"/>
  
  <!-- Data points -->
  <circle cx="80" cy="25" r="2" fill="#06b6d4" opacity="0.8"/>
  <circle cx="85" cy="35" r="1.5" fill="#14b8a6" opacity="0.6"/>
  <circle cx="90" cy="28" r="1" fill="#22c55e" opacity="0.7"/>
  <circle cx="80" cy="65" r="2" fill="#22c55e" opacity="0.8"/>
  <circle cx="85" cy="55" r="1.5" fill="#06b6d4" opacity="0.6"/>
  <circle cx="90" cy="62" r="1" fill="#14b8a6" opacity="0.7"/>
  
  <!-- Typography -->
  <text x="110" y="45" font-family="Arial, sans-serif" font-size="26" font-weight="700" fill="#1f2937">XOVA</text>
  <text x="110" y="65" font-family="Arial, sans-serif" font-size="8" font-weight="400" fill="#6b7280" letter-spacing="2px">AI PRECISION</text>
</svg>
